<?xml version="1.0" encoding="UTF-8"?>
<!-- Created with Inkscape (http://www.inkscape.org/) -->
<svg xmlns="http://www.w3.org/2000/svg" width="40mm" height="40mm" version="1.1" viewBox="0 0 40 40">
    <g transform="translate(-103.1 -145.5)">
        <path d="m129.36 180.27-8.6996-6.3652-8.6996 6.3652 8.6996-26.777 4.3498 13.389z" fill="#d80037"/>
        <path d="m109.74 177.79c0.26079-0.21733 0.65199-0.5216 1.1736-0.47814 0.52156 0.0435 1.6951 0.13041 2.1298 0.0435 0.43472-0.0869 0.7824 0.0435 0.91279-0.30426 0.1304-0.34773 0.17386-1.4779 0.52159-1.9125 0.34772-0.43461 1.304-0.91279 1.4344-1.3474 0.13038-0.43464 0.17387-0.60854 0-1.0432-0.17387-0.43465-0.56506-0.82586-1.1302-1.0867-0.56511-0.26082-1.0867-0.43466-1.0867-0.43466s-1.1302 1.0432-1.1736 1.304c-0.0434 0.26084 0.0869 0.52159-0.17386 0.65199-0.2608 0.1304-0.69546-0.26081-0.78239-0.95626-0.0869-0.69546 0.21733-1.5213 0.17385-1.9995-0.0435-0.4782-0.34772-0.91279-0.0869-1.3909 0.2608-0.47812 0.86933-1.217 1.3474-1.5648 0.47808-0.34772 1.304-0.39118 1.4344-0.82584 0.13037-0.43465-0.82585-2.0864-0.82585-2.4776 0-0.3912 0.1304-1.1302-0.17386-1.7386-0.30427-0.60846-0.652-1.9125-1.956-2.7383-1.304-0.82583-2.2167-1.1736-2.4341-1.7821-0.21735-0.60856-0.0435-0.60852 0.21734-0.78239 0.26079-0.17385-0.69545-1.1735-0.99969-2.1298s-0.82585-2.8688-0.60853-3.0426c0.21732-0.17387 0.86932 0 0.99969 0.34772 0.13036 0.34773 0.65199 2.4776 0.65199 2.4776s-0.1304-1.6082 0.0869-2.0864c0.21733-0.4781 0.47813-0.95625 0.73893-0.82585 0.26079 0.1304 0.1304 2.9557 0.1304 2.9557s0.26079-0.65199 0.43465-1.0432 0.30427-0.73893 0.52159-0.52159c0.21733 0.21733 0.0435 2.3037 0.0435 2.3037s0.34773-0.52159 0.60852-0.652c0.26082-0.1304 0.39121-0.21733 0.56507 0.0869 0.17386 0.30427 0.1304 0.69545 0.1304 0.69545s0.13041-0.43466 0.43466-0.43466 0.69545 0.13041 0.56506 0.47814c-0.1304 0.34772 1.1735 0.0435 1.0867 0.65199-0.0869 0.60852 0 1.1735 0.34773 1.1735 0.34772 0 0.56505 0.47813 1.2605 0.30427 0.43466 0.26079-0.21733 1.869 0.0869 1.6517 0.30426-0.21725 0.99968-0.39119 1.2605 0.0869 0.26085 0.47812-0.34773 1.0432-1e-5 1.4779 0.34774 0.43471 0 0.82586 0.5216 1.1736 0.5216 0.34769 0.56505 0.0869 0.69546 0.86933 0.13041 0.78238 0.13041 1.1302 0.34774 1.4344 0.21731 0.30425 0.47812 0.52159 0.43465 1.1736-0.0435 0.65196-0.43465 1.2605 0.0869 1.1735 0.52159-0.0869 0.73892-0.60853 1.1302-0.82585 0.39123-0.21732 0.47812-0.2608 0.99968-0.65199 0.52156-0.3912 0.60853-0.91278 0.91278-1.0432 0.30427-0.13039 0.56506-0.0869 0.99969-0.2608 0.43463-0.17386 0.86933-0.56505 1.0867-0.73892 0.21733-0.17386 0.21732-0.26079 0.6085-0.60851 0.3912-0.34772 0.78241-0.56506 1.0432-1.1302 0.26078-0.56511 0.21733-0.60854 0.52159-1.4344 0.30425-0.82587 0.21733-1.0867 0.39119-1.4344 0.17387-0.34773 0.17387-0.65199 0.47813-0.95626s0.56506-0.652 0.60853-0.34772c0.0435 0.30426 0.0435 0.73892 0.0435 0.99968s0.39119-0.39121 0.73892-1.0432 0.17387-0.73892 0.30427-1.304c0.1304-0.56511 0-0.95627 0.0435-1.6083 0.0435-0.65201 0.13041-0.69546 0.17387-1.6518 0.0435-0.95629 0.12073-1.1168 0.12073-1.8122 0-0.69546-0.0253-0.97677-0.0338-1.4912 0.1509-0.39481 0.32-0.51553 0.43466-0.47812 0.14123 0.0374 0.33083 0.0399 0.44433 0.56506 0.0869 0.56505 0.16536 0.98644 0.25113 2.0429-0.0869 1.0432-0.1304 1.956 0.0435 2.2167 0.17387 0.26074 0.30427 0.21733 0.43466-0.0869 0.13039-0.30427 0.1304-0.43466 0.30427-0.95627 0.17385-0.52159 0.16289-0.86338 0.25228-1.5914-0.0435-1.0867 8e-3 -1.5816 0.0519-2.4076 0.0435-0.82591-5e-3 -0.84997 0.0869-1.3474 0.0785-0.47091 0.18831-0.58312 0.56507-0.52159 0.21734 0.26079 0.26079 0.91279 0.34773 1.4779 0.0869 0.5651 0.0869 0.52159 0.1304 1.5648 0.0435 1.0432 6e-3 1.4596-0.0808 1.8073-0.0205 0.38759-0.0978 0.77272-0.0496 0.93098 0.26079-0.17386 0.26079-0.47813 0.52158-1.0867 0.2608-0.60854 0.47813-1.1302 0.56507-1.8256 0.0869-0.69544 0.31883-0.95019 0.46728-1.7157 0.34772-0.73891 0.42384-0.91754 0.66282-0.93574 0.25228 0.18109 0.37184 0.34411 0.34773 0.91279-0.13041 0.60851-0.13041 0.91278-0.34773 1.5213-0.21732 0.6085-0.17387 0.86933-0.47813 1.5213-0.18471 0.5723-0.20753 0.76667-0.30426 0.95627 0.43466 0.0435 0.4286-0.12925 0.69544-0.43467 0.43957-0.83681 0.27292-0.66049 0.43467-0.91278 0.24143-0.5047 0.44794-0.69055 0.65198-0.60852 0.21734 0.34773 0.30427 0.43465 0.1304 0.82586-0.17385 0.39119-0.0435 0.13039-0.30426 0.69544-0.2608 0.56505-0.52158 0.7824-0.17386 0.73893 0.34772-0.0435 0.3912 0 0.60852-0.34772 0.21734-0.34774 0-0.39121 0.47814-0.60853 0.47812-0.21733 0.78239-0.60852 0.91278-0.30427 0.13039 0.30427 0.17386 0.2608-0.13041 0.69547-0.30426 0.43467-0.60852 0.56506-0.47813 0.78239 0.13041 0.21734 0.47813 0.26079 0.73893 0.26079 0.26079 0 0.30426 0.0435 0.17386 0.47813-0.13039 0.43466-0.17386 0.43466-0.21733 0.65199-0.0435 0.21733 0.17386 0.3912 0.17386 0.3912s0.3912-0.2608 0.0869 0.39119c-0.30428 0.65199-0.47813 0.47813-0.652 0.7824-0.17386 0.30426-0.34773 0.60853-0.0869 0.60853 0.2608 0 0.52159-0.0435 0.47813 0.17386-0.0435 0.21733-0.43465 0.43466-0.21733 0.56506s0.39119-0.0435 0.56505 0.1304c0.17387 0.17386 0 0.47813 0 0.69546 0 0.21734-0.0435 0.3912 0.0435 0.60854 0.0869 0.21733 0.2608 0.43465 0.13039 0.65199-0.13038 0.21733 0.0435 0.26079-0.30425 0.47812-0.34773 0.21733-0.56506 0.17385-0.56506 0.39119s-0.0435 0.17387 0.17386 0.34773c0.21733 0.17386 0.47812 0.0435 0.30426 0.43467-0.17386 0.39118-0.13039 0.34772-0.21732 0.69545-0.0869 0.34774 0.0435 0.17386-0.34773 0.99968-0.39119 0.82583-0.78239 1.4344-1.1736 1.6518-0.39116 0.21734-0.30426 0.69545-0.0435 0.78238 0.2608 0.0869 0.30426 0.47813 0.0435 1.0432-0.2608 0.56506-0.56506 1.304-0.65199 1.6952-0.0869 0.39113-0.17385 0.43466-0.60853 0.91279-0.43466 0.47812-0.78238 0.91278-1.1736 1.0432-0.39116 0.13039-0.43465 0.56507-0.69545 0.7824-0.26079 0.21733-0.34773 0.34773-0.91278 0.34773-0.56506 0-0.56506-0.13041-1.1302 0.0435-0.56509 0.17387-0.82584 0.34772-0.86932 0.60854-0.0435 0.26079-0.21733 0.39119-0.56506 0.30425-0.34773-0.0869-0.0869 0.17387-0.52159 0.34773-0.43466 0.17386-0.30426 0.3912-0.82585 0.34773-0.52159-0.0435-0.78238-0.43465-0.91278 0-0.1304 0.43466-0.17387 0.7824-0.73893 0.39119-0.56505-0.39119-0.86932-1.4344-1.1735-0.34772-0.30423 1.0867-0.30427 1.3474 0.0435 1.6517 0.34773 0.30434 0.43465 0.56506 1.217 0.86933 0.78238 0.30427 0.78239 0.652 1.3474 0.86932 0.56502 0.21734 0.60853 0.30427 1.4779 0.73892 0.86935 0.43466 1.0867 0.56507 1.6083 0.86932 0.52159 0.30427 0.65199 0.60854 0.78239 0.9128 0.1304 0.30424 0.69546 0.65198 0.47812 1.0867-0.21733 0.43467-0.65198 0.17386-0.65198 0.3912 0 0.21733 0.0869 0.3912-0.0869 0.82585-0.17386 0.43465-0.1304 0.60853-0.73891 0.7824-0.60853 0.17385-0.95627 0.26079-1.2605 0.1304-0.30427-0.1304-0.39119 0.39118-0.69546 0.26079-0.30426-0.1304-0.43466-0.52159-0.65199-0.30427-0.21733 0.21733 0.17387 0.34773-0.34772 0.47814-0.5216 0.13039-0.56506-0.21734-0.60854 0.0869-0.0435 0.30427 0.13041 0.60853-0.43465 0.30427-0.56506-0.30427-0.39119-0.91279-0.82586-0.47813-0.43465 0.43466-0.21733 0.95626-0.99968 0.5216-0.78235-0.43468-0.52159-0.47815-1.1302-0.43466-0.60857 0.0435-0.60853 0.0869-0.82585-0.39121-0.21733-0.47812 0.21733-0.34772-0.73892-0.39119-0.95625-0.0435-0.47813 0.56506-1.0867-0.2608-0.60854-0.82584-0.73892-1.6517-0.99968-0.73891-0.26077 0.91282 0 1.1302-0.39121 1.3909-0.39119 0.26075-2.3906 0.17386-2.3906 0.17386s-0.0435 0.9997-0.21733 1.1736c-0.17386 0.17387-0.60852-0.17385-0.99968 0.17387-0.39115 0.34772-0.1304 0.56506-0.47813 0.86932-0.34772 0.30427-1.0432 0.34773-1.0432 0.34773s0.47814-0.3912 0.60854-0.73893c0.1304-0.34772 0.30427-0.95624 0.30427-0.95624s-0.69546 0.26078-0.99968 0.30425c-0.30424 0.0435-0.78241-0.0435-0.78241-0.0435l0.13041 0.99969s-0.82586 0-0.82586-0.34772c0-0.34773 0.2608-1.304 0.47813-1.4344 0.21733-0.13037 0.52159-0.0869 0.52159-0.0869s-0.0869-0.43466 0.1304-0.52158c0.21733-0.0869 0.34774 0 0.69546 0 0.34773 0 1.9125-0.47814 1.9125-0.47814s-0.0435-1.1302 0.13039-1.6082c0.17388-0.47811 0.99969-1.8256 0.60854-2.0429-0.39116-0.21726-0.69546-0.0435-0.91279 0.17386-0.21733 0.21733-0.60853 0.86933-1.4344 1.0432-0.82585 0.17386-1.4779 0.26081-1.4779 0.26081s-0.17386 0.0869-0.17386 0.43464c0 0.34773 0.30426 0.69545-0.13041 1.1302-0.43467 0.4347-0.78239 0.82586-1.2605 0.60853-0.47813-0.21732-0.56506-0.47812-0.56506-0.47812s0.34773 0.21733 0.91279 0.0869c0.56506-0.13041 0.34772-1.217 0.30426-1.4344-0.0435-0.21734-0.47812-0.43465-0.73892-0.21733-0.26079 0.21732-0.60852 0.7824-0.39119 0.99969s-0.60854-0.47813-0.56506-0.78239c0.0435-0.30427 0.17386-0.52159 0.17386-0.52159s-0.56506 0-0.91278-0.0435c-0.34773-0.0435-0.60854-0.21734-0.60854 0.0435 0 0.26079 0.17386 1.4344-0.21733 0.69545s-0.56506-0.91278-0.17386-1.304z" fill-rule="evenodd" stroke="#000" stroke-width=".12272"/>
    </g>
</svg>
