<?xml version="1.0" encoding="UTF-8"?>
<!-- Created with Inkscape (http://www.inkscape.org/) -->
<svg width="100" height="100" version="1.1" viewBox="0 0 26.458 26.458" xmlns="http://www.w3.org/2000/svg">
    <g transform="translate(0 -270.54)">
        <path d="m15.53 280.84a2.3011 2.3011 0 0 1-2.3011 2.3011 2.3011 2.3011 0 0 1-2.3011-2.3011 2.3011 2.3011 0 0 1 2.3011-2.3011 2.3011 2.3011 0 0 1 2.3011 2.3011zm-2.2892 10.177c-0.33195-1.6295-0.91726-2.9856-1.6261-4.2424-0.52582-0.93224-1.1349-1.7927-1.6985-2.6968-0.18814-0.30178-0.35051-0.6206-0.5313-0.93378-0.36149-0.62626-0.65458-1.3524-0.63596-2.2942 0.018196-0.92025 0.28436-1.6584 0.66816-2.2621 0.63125-0.99278 1.6886-1.8067 3.1073-2.0206 1.16-0.17489 2.2476 0.12058 3.0188 0.57155 0.63019 0.36853 1.1183 0.86082 1.4893 1.441 0.38721 0.60553 0.65386 1.3209 0.67621 2.254 0.01147 0.47806-0.06679 0.92076-0.17708 1.288-0.11158 0.37171-0.29105 0.68242-0.45075 1.0143-0.31178 0.64786-0.70258 1.2414-1.0948 1.8354-1.1683 1.7692-2.2649 3.5734-2.7451 6.0456z" fill-rule="evenodd">
            <animate attributeName="fill" values="#000;#1e90ff;#000" dur="1s" repeatCount="indefinite"/>
        </path>
    </g>
</svg>
