<?xml version="1.0" encoding="UTF-8" standalone="no"?>
<svg
   xmlns="http://www.w3.org/2000/svg"
   version="1.1"
   viewBox="0 0 99.015811 38.17085"
   height="144.26778"
   width="366.67395">
  <g
     transform="translate(-33.068605,-258.1734)"
     id="layer1">
    <g transform="translate(2,0)">
    <path
       id="path2"
       d="m 100.56282,289.88176 c 0.26617,-0.22181 0.66543,-0.53235 1.19775,-0.48799 0.53231,0.0444 1.73008,0.13309 2.17374,0.0444 0.44368,-0.0887 0.79853,0.0444 0.93161,-0.31053 0.13308,-0.3549 0.17744,-1.50836 0.53234,-1.95192 0.35489,-0.44357 1.33091,-0.9316 1.46396,-1.37518 0.13307,-0.4436 0.17745,-0.62109 0,-1.06469 -0.17745,-0.44361 -0.57671,-0.84288 -1.15345,-1.10907 -0.57676,-0.2662 -1.10907,-0.44362 -1.10907,-0.44362 0,0 -1.15346,1.06468 -1.19774,1.33091 -0.0443,0.26622 0.0887,0.53234 -0.17745,0.66543 -0.26617,0.13309 -0.70979,-0.26618 -0.79852,-0.97597 -0.0887,-0.7098 0.22181,-1.55264 0.17744,-2.04069 -0.0444,-0.48806 -0.35489,-0.93161 -0.0887,-1.41958 0.26617,-0.48798 0.88725,-1.24213 1.37519,-1.59703 0.48794,-0.35489 1.33091,-0.39925 1.46396,-0.84287 0.13306,-0.44361 -0.84287,-2.12936 -0.84287,-2.52865 0,-0.39927 0.13309,-1.15345 -0.17745,-1.77447 -0.31054,-0.62101 -0.66544,-1.95191 -1.99631,-2.79476 -1.33087,-0.84285 -2.26242,-1.19775 -2.484255,-1.81886 -0.221833,-0.62111 -0.04436,-0.62107 0.221815,-0.79852 0.26617,-0.17744 -0.709789,-1.19774 -1.020296,-2.17375 -0.310508,-0.97601 -0.842879,-2.92793 -0.621075,-3.10538 0.221804,-0.17745 0.887245,0 1.020296,0.35489 0.133049,0.3549 0.665435,2.52865 0.665435,2.52865 0,0 -0.133094,-1.6414 0.0887,-2.12936 0.22181,-0.48796 0.48799,-0.97597 0.75416,-0.84288 0.26617,0.13309 0.13309,3.0166 0.13309,3.0166 0,0 0.26617,-0.66543 0.44361,-1.06468 0.17745,-0.39925 0.31054,-0.75416 0.53234,-0.53234 0.22181,0.22181 0.0444,2.3512 0.0444,2.3512 0,0 0.3549,-0.53234 0.62107,-0.66544 0.26619,-0.13309 0.39927,-0.22181 0.57671,0.0887 0.17745,0.31054 0.13309,0.70979 0.13309,0.70979 0,0 0.1331,-0.44363 0.44362,-0.44363 0.31053,0 0.70979,0.1331 0.57671,0.488 -0.13309,0.35489 1.19774,0.0444 1.10907,0.66543 -0.0887,0.62107 0,1.19774 0.3549,1.19774 0.35489,0 0.5767,0.48798 1.28651,0.31054 0.44362,0.26616 -0.22181,1.90753 0.0887,1.68579 0.31053,-0.22173 1.02029,-0.39926 1.28651,0.0887 0.26622,0.48798 -0.3549,1.06468 -1e-5,1.50834 0.3549,0.44367 0,0.84288 0.53235,1.19775 0.53235,0.35486 0.5767,0.0887 0.7098,0.88725 0.13309,0.79851 0.13309,1.15345 0.3549,1.46395 0.22179,0.31052 0.48798,0.53234 0.44361,1.19775 -0.0444,0.6654 -0.44361,1.28652 0.0887,1.19774 0.53234,-0.0887 0.75415,-0.62108 1.15345,-0.84288 0.3993,-0.2218 0.48798,-0.26617 1.02029,-0.66543 0.53232,-0.39926 0.62108,-0.9316 0.9316,-1.06468 0.31054,-0.13308 0.57671,-0.0887 1.0203,-0.26618 0.44359,-0.17744 0.88725,-0.5767 1.10908,-0.75415 0.22181,-0.17745 0.2218,-0.26617 0.62105,-0.62106 0.39926,-0.35489 0.79853,-0.57671 1.06469,-1.15345 0.26616,-0.57676 0.22181,-0.62108 0.53234,-1.46397 0.31053,-0.84289 0.22181,-1.10907 0.39926,-1.46396 0.17745,-0.3549 0.17745,-0.66543 0.48798,-0.97597 0.31054,-0.31054 0.57671,-0.66544 0.62108,-0.35489 0.0444,0.31053 0.0444,0.75415 0.0444,1.02029 0,0.26614 0.39925,-0.39927 0.75415,-1.06468 0.3549,-0.66542 0.17745,-0.75416 0.31054,-1.3309 0.13309,-0.57676 0,-0.97598 0.0444,-1.64141 0.0444,-0.66545 0.1331,-0.7098 0.17745,-1.6858 0.0444,-0.97601 0.12322,-1.13983 0.12322,-1.84961 0,-0.7098 -0.0258,-0.99691 -0.0345,-1.52189 0.15401,-0.40295 0.32659,-0.52616 0.44362,-0.48798 0.14414,0.0382 0.33765,0.0407 0.45349,0.57671 0.0887,0.5767 0.16876,1.00677 0.2563,2.08497 -0.0887,1.06469 -0.13309,1.99631 0.0444,2.26243 0.17745,0.26612 0.31054,0.22181 0.44362,-0.0887 0.13308,-0.31054 0.13309,-0.44362 0.31054,-0.97598 0.17744,-0.53235 0.16625,-0.88118 0.25748,-1.62417 -0.0444,-1.10907 0.008,-1.61426 0.053,-2.45721 0.0444,-0.84294 -0.005,-0.8675 0.0887,-1.37518 0.0801,-0.48062 0.19219,-0.59514 0.57671,-0.53234 0.22182,0.26616 0.26617,0.9316 0.3549,1.50834 0.0887,0.57675 0.0887,0.53235 0.13309,1.59703 0.0444,1.06468 0.006,1.48971 -0.0825,1.8446 -0.0209,0.39558 -0.0998,0.78865 -0.0506,0.95017 0.26617,-0.17744 0.26617,-0.48798 0.53234,-1.10907 0.26617,-0.62108 0.48798,-1.15345 0.57671,-1.86324 0.0887,-0.70978 0.32541,-0.96978 0.47692,-1.75103 0.35489,-0.75415 0.43257,-0.93646 0.67648,-0.95503 0.25748,0.18482 0.37951,0.3512 0.3549,0.9316 -0.1331,0.62106 -0.1331,0.9316 -0.3549,1.55263 -0.2218,0.62104 -0.17745,0.88725 -0.48799,1.55264 -0.18851,0.58409 -0.2118,0.78247 -0.31053,0.97598 0.44362,0.0444 0.43744,-0.13191 0.70978,-0.44363 0.44863,-0.85406 0.27855,-0.67411 0.44363,-0.9316 0.24641,-0.5151 0.45717,-0.70478 0.66542,-0.62106 0.22182,0.3549 0.31054,0.44361 0.13309,0.84288 -0.17744,0.39926 -0.0444,0.13308 -0.31053,0.70978 -0.26618,0.5767 -0.53234,0.79853 -0.17745,0.75416 0.35489,-0.0444 0.39927,0 0.62107,-0.35489 0.22182,-0.3549 0,-0.39927 0.48799,-0.62107 0.48798,-0.22181 0.79852,-0.62107 0.9316,-0.31054 0.13308,0.31054 0.17745,0.26617 -0.1331,0.7098 -0.31053,0.44363 -0.62106,0.57671 -0.48798,0.79852 0.13309,0.22182 0.48798,0.26617 0.75416,0.26617 0.26616,0 0.31053,0.0444 0.17744,0.48799 -0.13308,0.44362 -0.17744,0.44362 -0.22181,0.66543 -0.0444,0.22181 0.17745,0.39926 0.17745,0.39926 0,0 0.39926,-0.26617 0.0887,0.39926 -0.31055,0.66543 -0.48799,0.48798 -0.66544,0.79853 -0.17745,0.31053 -0.3549,0.62107 -0.0887,0.62107 0.26617,0 0.53234,-0.0444 0.48798,0.17744 -0.0444,0.22182 -0.44361,0.44363 -0.22181,0.57671 0.2218,0.13309 0.39926,-0.0444 0.5767,0.13309 0.17745,0.17745 0,0.48799 0,0.7098 0,0.22182 -0.0444,0.39926 0.0444,0.62108 0.0887,0.22181 0.26617,0.44361 0.13308,0.66543 -0.13307,0.22181 0.0444,0.26617 -0.31053,0.48798 -0.3549,0.22181 -0.57671,0.17744 -0.57671,0.39926 0,0.22182 -0.0444,0.17745 0.17745,0.35489 0.22181,0.17745 0.48798,0.0444 0.31053,0.44363 -0.17744,0.39925 -0.13308,0.35489 -0.2218,0.70979 -0.0887,0.35491 0.0444,0.17745 -0.3549,1.02029 -0.39925,0.84286 -0.79852,1.46397 -1.19774,1.68581 -0.39922,0.22182 -0.31053,0.70979 -0.0444,0.79851 0.26618,0.0887 0.31054,0.48799 0.0444,1.06468 -0.26618,0.5767 -0.57671,1.33091 -0.66543,1.73009 -0.0887,0.39919 -0.17744,0.44362 -0.62108,0.93161 -0.44362,0.48798 -0.79851,0.9316 -1.19774,1.06467 -0.39922,0.13308 -0.44361,0.57672 -0.70979,0.79853 -0.26616,0.22181 -0.35489,0.3549 -0.93159,0.3549 -0.57671,0 -0.57671,-0.1331 -1.15347,0.0444 -0.57674,0.17745 -0.84287,0.35489 -0.88724,0.62108 -0.0444,0.26617 -0.22181,0.39926 -0.57671,0.31053 -0.3549,-0.0887 -0.0887,0.17745 -0.53234,0.35489 -0.44362,0.17745 -0.31054,0.39927 -0.84288,0.3549 -0.53234,-0.0444 -0.79851,-0.44361 -0.9316,0 -0.13308,0.44362 -0.17745,0.79853 -0.75416,0.39926 -0.5767,-0.39926 -0.88724,-1.46396 -1.19773,-0.35489 -0.3105,1.10907 -0.31054,1.37519 0.0444,1.68579 0.3549,0.31061 0.44362,0.57671 1.24213,0.88725 0.79851,0.31054 0.79852,0.66544 1.37519,0.88724 0.57667,0.22182 0.62108,0.31055 1.50835,0.75416 0.88727,0.44362 1.10906,0.57671 1.64141,0.88724 0.53234,0.31054 0.66543,0.62108 0.79852,0.93161 0.13309,0.31052 0.7098,0.66542 0.48798,1.10907 -0.22181,0.44363 -0.66542,0.17744 -0.66542,0.39926 0,0.22181 0.0887,0.39926 -0.0887,0.84288 -0.17745,0.44361 -0.13309,0.62107 -0.75415,0.79852 -0.62107,0.17744 -0.97598,0.26617 -1.28652,0.13309 -0.31055,-0.13309 -0.39926,0.39925 -0.7098,0.26617 -0.31053,-0.13309 -0.44362,-0.53234 -0.66543,-0.31054 -0.22181,0.22181 0.17745,0.3549 -0.35489,0.48799 -0.53235,0.13308 -0.57671,-0.22182 -0.62108,0.0887 -0.0444,0.31054 0.13309,0.62107 -0.44362,0.31054 -0.5767,-0.31054 -0.39925,-0.93161 -0.84288,-0.48799 -0.44361,0.44362 -0.22181,0.97597 -1.02029,0.53235 -0.79848,-0.44364 -0.53234,-0.488 -1.15346,-0.44362 -0.62111,0.0444 -0.62107,0.0887 -0.84287,-0.39927 -0.22181,-0.48798 0.22181,-0.35489 -0.75416,-0.39926 -0.97596,-0.0444 -0.48798,0.57671 -1.10907,-0.26617 -0.62108,-0.84287 -0.75415,-1.68579 -1.02029,-0.75415 -0.26614,0.93164 0,1.15345 -0.39927,1.41957 -0.39926,0.26612 -2.43987,0.17744 -2.43987,0.17744 0,0 -0.0444,1.02031 -0.22181,1.19775 -0.17745,0.17745 -0.62107,-0.17744 -1.02029,0.17745 -0.39922,0.35489 -0.13309,0.57671 -0.48799,0.88724 -0.35489,0.31054 -1.06469,0.3549 -1.06469,0.3549 0,0 0.48799,-0.39927 0.62108,-0.75416 0.13309,-0.35489 0.31054,-0.97596 0.31054,-0.97596 0,0 -0.70979,0.26616 -1.02029,0.31053 -0.31051,0.0444 -0.79853,-0.0444 -0.79853,-0.0444 l 0.13309,1.0203 c 0,0 -0.84288,0 -0.84288,-0.35489 0,-0.3549 0.26618,-1.3309 0.48799,-1.46397 0.22181,-0.13306 0.53234,-0.0887 0.53234,-0.0887 0,0 -0.0887,-0.44362 0.13309,-0.53234 0.22181,-0.0887 0.3549,0 0.70979,0 0.3549,0 1.95192,-0.48799 1.95192,-0.48799 0,0 -0.0444,-1.15346 0.13308,-1.64141 0.17746,-0.48796 1.0203,-1.86325 0.62108,-2.08497 -0.39922,-0.22174 -0.70979,-0.0444 -0.9316,0.17744 -0.22181,0.22181 -0.62108,0.88725 -1.46397,1.06468 -0.84288,0.17744 -1.50834,0.26618 -1.50834,0.26618 0,0 -0.17745,0.0887 -0.17745,0.44361 0,0.35489 0.31054,0.70978 -0.13309,1.15345 -0.44363,0.44367 -0.79852,0.84289 -1.28652,0.62108 -0.48799,-0.2218 -0.57671,-0.48798 -0.57671,-0.48798 0,0 0.3549,0.22181 0.93161,0.0887 0.57671,-0.13309 0.35489,-1.24213 0.31053,-1.46397 -0.0444,-0.22182 -0.48798,-0.44361 -0.75415,-0.22181 -0.26617,0.2218 -0.62107,0.79853 -0.39926,1.0203 0.22181,0.22177 -0.62108,-0.48798 -0.57671,-0.79852 0.0444,-0.31054 0.17745,-0.53234 0.17745,-0.53234 0,0 -0.57671,0 -0.9316,-0.0444 -0.3549,-0.0444 -0.62108,-0.22182 -0.62108,0.0444 0,0.26617 0.17744,1.46396 -0.22181,0.70979 -0.39926,-0.75418 -0.57671,-0.9316 -0.17745,-1.33091 z"
       style="fill-rule:evenodd;stroke:#000000;stroke-width:0.12524493" /></g>
      <path
         id="path1389"
         style="stroke-width:1.09089851"
         d="m 33.068605,293.90398 v -27.3161 h 4.101779 v 12.30534 h 9.556272 v -12.30534 h 4.101779 v 27.3161 h -4.101779 v -12.30533 h -9.556272 v 12.30533 z" />
      <path
         id="path1393"
         style="stroke-width:1.09089851"
         d="m 76.704382,290.58765 v -23.99977 h 3.970871 l 0.829083,23.86886 h 8.159921 l 0.829083,-23.86886 h 3.970871 v 23.99977 l -3.316332,3.31633 H 79.977078 Z" />
    <path
       transform="matrix(0.55693929,0,0,0.98973373,28.093346,15.763454)"
       id="path1387"
       d="m 79.992547,281.02561 -15.942353,-6.56386 -15.942353,6.56386 7.971176,-13.80648 7.971177,-13.80648 7.971176,13.80648 z"
       style="fill:#d80037;fill-opacity:1;stroke:none;stroke-width:0.26458332;stroke-opacity:1" />
  </g>
</svg>
